<?xml version="1.0" encoding="utf-8"?>
<!-- Generator: Adobe Illustrator 16.0.0, SVG Export Plug-In . SVG Version: 6.00 Build 0)  -->
<!DOCTYPE svg PUBLIC "-//W3C//DTD SVG 1.1//EN" "http://www.w3.org/Graphics/SVG/1.1/DTD/svg11.dtd">
<svg version="1.1" id="Capa_1" xmlns="http://www.w3.org/2000/svg" xmlns:xlink="http://www.w3.org/1999/xlink" x="0px" y="0px"
	 width="453.541px" height="453.539px" viewBox="0 0 453.541 453.539" enable-background="new 0 0 453.541 453.539"
	 xml:space="preserve">
<g>
	<path fill="#0381FC" d="M226.77,0C101.72,0,0,101.73,0,226.77s101.72,226.77,226.77,226.77S453.54,351.81,453.54,226.77
		S351.82,0,226.77,0z M302.43,236.03h-66.4v66.391c0,5.119-4.14,9.25-9.26,9.25s-9.26-4.131-9.26-9.25V236.03h-66.4
		c-5.11,0-9.26-4.149-9.26-9.26c0-5.11,4.15-9.26,9.26-9.26h66.4v-66.4c0-5.11,4.14-9.25,9.26-9.25s9.25,4.14,9.25,9.25v66.4h66.41
		c5.12,0,9.25,4.15,9.25,9.26C311.68,231.88,307.551,236.03,302.43,236.03z"/>
	<path fill="#FFFFFF" d="M311.68,226.77c0,5.11-4.13,9.26-9.25,9.26h-66.4v66.391c0,5.119-4.14,9.25-9.26,9.25
		s-9.26-4.131-9.26-9.25V236.03h-66.4c-5.11,0-9.26-4.149-9.26-9.26c0-5.11,4.15-9.26,9.26-9.26h66.4v-66.4
		c0-5.11,4.14-9.25,9.26-9.25s9.25,4.14,9.25,9.25v66.4h66.41C307.551,217.51,311.68,221.66,311.68,226.77z"/>
</g>
</svg>
