<svg xmlns="http://www.w3.org/2000/svg" xmlns:xlink="http://www.w3.org/1999/xlink" width="24" height="24" preserveAspectRatio="xMidYMid meet" viewBox="0 0 24 24" style="-ms-transform: rotate(360deg); -webkit-transform: rotate(360deg); transform: rotate(360deg);"><path d="M11 18c0 1.1-.9 2-2 2s-2-.9-2-2s.9-2 2-2s2 .9 2 2zm-2-8c-1.1 0-2 .9-2 2s.9 2 2 2s2-.9 2-2s-.9-2-2-2zm0-6c-1.1 0-2 .9-2 2s.9 2 2 2s2-.9 2-2s-.9-2-2-2zm6 4c1.1 0 2-.9 2-2s-.9-2-2-2s-2 .9-2 2s.9 2 2 2zm0 2c-1.1 0-2 .9-2 2s.9 2 2 2s2-.9 2-2s-.9-2-2-2zm0 6c-1.1 0-2 .9-2 2s.9 2 2 2s2-.9 2-2s-.9-2-2-2z" fill="black"/><rect x="0" y="0" width="24" height="24" fill="rgba(0, 0, 0, 0)" /></svg>