<?xml version="1.0" encoding="utf-8"?>
<!-- Generator: Adobe Illustrator 16.0.0, SVG Export Plug-In . SVG Version: 6.00 Build 0)  -->
<!DOCTYPE svg PUBLIC "-//W3C//DTD SVG 1.1//EN" "http://www.w3.org/Graphics/SVG/1.1/DTD/svg11.dtd">
<svg version="1.1" id="Layer_1" xmlns="http://www.w3.org/2000/svg" xmlns:xlink="http://www.w3.org/1999/xlink" x="0px" y="0px"
	 width="1024px" height="1024px" viewBox="0 0 1024 1024" enable-background="new 0 0 1024 1024" xml:space="preserve">
<path fill="#099145" d="M512.75,1.5C230.42,1.5,1.5,230.42,1.5,512.75C1.5,795.079,230.42,1024,512.75,1024
	S1024,795.079,1024,512.75C1024,230.42,795.08,1.5,512.75,1.5z M549.269,759.25c0,5.02-4.109,9.13-9.13,9.13h-54.78
	c-5.02,0-9.13-4.11-9.13-9.13V448.84c0-5.021,4.11-9.13,9.13-9.13h54.78c5.021,0,9.13,4.109,9.13,9.13V759.25z M512.75,366.68
	c-30.25-0.62-54.279-25.64-53.659-55.9c0.6-29.38,24.279-53.06,53.659-53.659c30.25,0.619,54.28,25.649,53.66,55.899
	C565.809,342.4,542.131,366.08,512.75,366.68z"/>
<rect x="432.5" y="242.5" fill="#099145" width="143" height="596"/>
<g>
	<path fill="#FFFFFF" d="M543.165,340.97c-0.35,17.063-14.102,30.817-31.166,31.165c-17.568-0.36-31.524-14.891-31.164-32.466
		c0.348-17.063,14.101-30.816,31.164-31.164C529.567,308.865,543.524,323.402,543.165,340.97z"/>
	<path fill="#FFFFFF" d="M530.28,431.082v276.287c0,4.468-2.057,8.126-4.57,8.126H498.29c-2.512,0-4.57-3.658-4.57-8.126V431.082
		c0-4.469,2.059-8.127,4.57-8.127h27.419C528.223,422.955,530.28,426.614,530.28,431.082z"/>
</g>
</svg>
