<?xml version="1.0" encoding="utf-8"?>
<!-- Generator: Adobe Illustrator 16.0.0, SVG Export Plug-In . SVG Version: 6.00 Build 0)  -->
<!DOCTYPE svg PUBLIC "-//W3C//DTD SVG 1.1//EN" "http://www.w3.org/Graphics/SVG/1.1/DTD/svg11.dtd">
<svg version="1.1" id="Capa_1" xmlns="http://www.w3.org/2000/svg" xmlns:xlink="http://www.w3.org/1999/xlink" x="0px" y="0px"
	 width="453.541px" height="453.539px" viewBox="0 0 453.541 453.539" enable-background="new 0 0 453.541 453.539"
	 xml:space="preserve">
<g>
	<path fill="#E04F5F" d="M67.041,64.919c-88.424,88.424-88.416,232.286,0,320.702c88.417,88.417,232.277,88.424,320.701,0
		s88.417-232.284,0-320.701C299.326-23.497,155.465-23.504,67.041,64.919z M287.439,178.318l-46.952,46.953l46.945,46.945
		c3.62,3.62,3.614,9.468-0.007,13.088s-9.469,3.627-13.088,0.007l-46.945-46.945l-46.953,46.953
		c-3.613,3.613-9.48,3.613-13.095-0.001c-3.613-3.613-3.613-9.481,0-13.095l46.952-46.952l-46.952-46.952
		c-3.614-3.614-3.614-9.468,0.007-13.089s9.468-3.613,13.082,0l46.951,46.952l46.96-46.959c3.62-3.62,9.475-3.606,13.088,0.007
		S291.06,174.697,287.439,178.318z"/>
	<path fill="#FFFFFF" d="M287.432,165.229c3.613,3.613,3.628,9.468,0.007,13.088l-46.952,46.953l46.945,46.945
		c3.62,3.62,3.614,9.468-0.007,13.088s-9.469,3.627-13.088,0.007l-46.945-46.945l-46.953,46.953
		c-3.613,3.613-9.48,3.613-13.095-0.001c-3.613-3.613-3.613-9.481,0-13.095l46.952-46.952l-46.952-46.952
		c-3.614-3.614-3.614-9.468,0.007-13.089s9.468-3.613,13.082,0l46.951,46.952l46.96-46.959
		C277.966,161.601,283.819,161.616,287.432,165.229z"/>
</g>
</svg>
